<svg width="18" height="20" viewBox="0 0 18 20" fill="none" xmlns="http://www.w3.org/2000/svg">
<path d="M9.015 1.25C9.83416 1.25 10.6198 1.57924 11.199 2.16529C11.7783 2.75134 12.1037 3.5462 12.1037 4.375V5H5.92632V4.375C5.92632 3.5462 6.25173 2.75134 6.83097 2.16529C7.41021 1.57924 8.19583 1.25 9.015 1.25ZM13.3391 5V4.375C13.3391 3.21468 12.8836 2.10188 12.0726 1.28141C11.2617 0.460936 10.1618 0 9.015 0C7.86816 0 6.7683 0.460936 5.95736 1.28141C5.14643 2.10188 4.69085 3.21468 4.69085 4.375V5H0.366699V17.5C0.366699 18.163 0.62703 18.7989 1.09042 19.2678C1.55381 19.7366 2.18231 20 2.83764 20H15.1924C15.8477 20 16.4762 19.7366 16.9396 19.2678C17.403 18.7989 17.6633 18.163 17.6633 17.5V5H13.3391ZM1.60217 6.25H16.4278V17.5C16.4278 17.8315 16.2977 18.1495 16.066 18.3839C15.8343 18.6183 15.52 18.75 15.1924 18.75H2.83764C2.50997 18.75 2.19573 18.6183 1.96403 18.3839C1.73234 18.1495 1.60217 17.8315 1.60217 17.5V6.25Z" fill="#80233A"/>
</svg>
