<svg width="45" height="43" viewBox="0 0 45 43" fill="none" xmlns="http://www.w3.org/2000/svg">
<ellipse cx="22.5" cy="21.4259" rx="22.5" ry="21.4259" fill="#F4F2F2"/>
<path d="M22.5 10.8918C23.4531 10.8918 24.3672 11.2524 25.0412 11.8942C25.7151 12.536 26.0938 13.4064 26.0938 14.314V14.9985H18.9062V14.314C18.9062 13.4064 19.2849 12.536 19.9588 11.8942C20.6328 11.2524 21.5469 10.8918 22.5 10.8918ZM27.5312 14.9985V14.314C27.5312 13.0434 27.0012 11.8247 26.0576 10.9262C25.1141 10.0277 23.8344 9.52295 22.5 9.52295C21.1656 9.52295 19.8859 10.0277 18.9424 10.9262C17.9988 11.8247 17.4688 13.0434 17.4688 14.314V14.9985H12.4375V28.6873C12.4375 29.4134 12.7404 30.1097 13.2796 30.6232C13.8187 31.1366 14.55 31.425 15.3125 31.425H29.6875C30.45 31.425 31.1813 31.1366 31.7204 30.6232C32.2596 30.1097 32.5625 29.4134 32.5625 28.6873V14.9985H27.5312ZM13.875 16.3673H31.125V28.6873C31.125 29.0503 30.9735 29.3985 30.704 29.6552C30.4344 29.9119 30.0687 30.0561 29.6875 30.0561H15.3125C14.9313 30.0561 14.5656 29.9119 14.296 29.6552C14.0265 29.3985 13.875 29.0503 13.875 28.6873V16.3673Z" fill="#80233A"/>
<path d="M13.875 16.3673H31.125V28.6873C31.125 29.0503 30.9735 29.3985 30.704 29.6552C30.4344 29.9119 30.0687 30.0561 29.6875 30.0561H15.3125C14.9313 30.0561 14.5656 29.9119 14.296 29.6552C14.0265 29.3985 13.875 29.0503 13.875 28.6873V16.3673Z" fill="#80233A"/>
</svg>
