<svg width="45" height="44" viewBox="0 0 45 44" fill="none" xmlns="http://www.w3.org/2000/svg">
<ellipse cx="22.5" cy="22.2863" rx="22.5" ry="21.4259" fill="#80233A"/>
<g clip-path="url(#clip0_1_2032)">
<path d="M22.5 11.7522C23.4531 11.7522 24.3672 12.1127 25.0412 12.7545C25.7151 13.3963 26.0938 14.2668 26.0938 15.1744V15.8588H18.9062V15.1744C18.9062 14.2668 19.2849 13.3963 19.9588 12.7545C20.6328 12.1127 21.5469 11.7522 22.5 11.7522ZM27.5312 15.8588V15.1744C27.5312 13.9037 27.0012 12.6851 26.0576 11.7866C25.1141 10.8881 23.8344 10.3833 22.5 10.3833C21.1656 10.3833 19.8859 10.8881 18.9424 11.7866C17.9988 12.6851 17.4688 13.9037 17.4688 15.1744V15.8588H12.4375V29.5476C12.4375 30.2737 12.7404 30.9701 13.2796 31.4835C13.8187 31.9969 14.55 32.2854 15.3125 32.2854H29.6875C30.45 32.2854 31.1813 31.9969 31.7204 31.4835C32.2596 30.9701 32.5625 30.2737 32.5625 29.5476V15.8588H27.5312ZM13.875 17.2277H31.125V29.5476C31.125 29.9107 30.9735 30.2589 30.704 30.5156C30.4344 30.7723 30.0687 30.9165 29.6875 30.9165H15.3125C14.9313 30.9165 14.5656 30.7723 14.296 30.5156C14.0265 30.2589 13.875 29.9107 13.875 29.5476V17.2277Z" fill="white"/>
</g>
<defs>
<clipPath id="clip0_1_2032">
<rect width="23" height="21.9021" fill="white" transform="translate(11 10.3833)"/>
</clipPath>
</defs>
</svg>
