<svg width="18" height="19" viewBox="0 0 18 19" fill="none" xmlns="http://www.w3.org/2000/svg">
<path d="M17.452 17.9226L12.7384 12.8325C15.2129 10.0284 15.3505 5.62261 12.9367 2.64723C11.5728 0.965004 9.59078 0 7.49885 0C5.78134 0.000115964 4.11842 0.656685 2.81639 1.84879C-0.181752 4.59293 -0.520071 9.41532 2.06245 12.5986C3.42766 14.2814 5.41056 15.2466 7.50278 15.2466C9.07704 15.2466 10.6025 14.6889 11.8501 13.6782C11.8511 13.6794 11.8514 13.681 11.8526 13.6822L16.6019 18.8107C16.7183 18.9369 16.8726 19 17.027 19C17.1778 19 17.3292 18.9394 17.445 18.8182C17.6797 18.5726 17.6832 18.1718 17.452 17.9226ZM7.50278 13.9799C5.82108 13.9799 4.14987 13.2312 2.9659 11.7718C0.808748 9.11277 1.09 5.10099 3.59493 2.80823C4.72504 1.77365 6.11529 1.26679 7.49856 1.26667C9.17952 1.2666 10.8503 2.01494 12.0333 3.47408C14.1911 6.13383 13.9105 10.1463 11.4071 12.4384C10.2763 13.4731 8.88604 13.9799 7.50278 13.9799Z" fill="black"/>
</svg>
